<svg width="37" height="27" viewBox="0 0 37 27" fill="none" xmlns="http://www.w3.org/2000/svg">
<path d="M20.5556 27C19.9732 27 19.4853 26.856 19.092 26.568C18.6987 26.28 18.5014 25.924 18.5 25.5C18.4986 25.076 18.696 24.72 19.092 24.432C19.488 24.144 19.9759 24 20.5556 24H32.8889V3H20.5556C19.9732 3 19.4853 2.856 19.092 2.568C18.6987 2.28 18.5014 1.924 18.5 1.5C18.4986 1.076 18.696 0.72 19.092 0.432C19.488 0.144 19.9759 0 20.5556 0H32.8889C34.0194 0 34.9876 0.294 35.7934 0.882C36.5992 1.47 37.0014 2.176 37 3V24C37 24.825 36.5978 25.5315 35.7934 26.1195C34.989 26.7075 34.0208 27.001 32.8889 27H20.5556ZM16.8042 15H2.05556C1.47315 15 0.985303 14.856 0.592007 14.568C0.198711 14.28 0.00137746 13.924 7.08811e-06 13.5C-0.00136328 13.076 0.19597 12.72 0.592007 12.432C0.988044 12.144 1.4759 12 2.05556 12H16.8042L12.95 9.1875C12.5732 8.9125 12.3847 8.575 12.3847 8.175C12.3847 7.775 12.5732 7.425 12.95 7.125C13.3269 6.825 13.8065 6.6685 14.3889 6.6555C14.9713 6.6425 15.4681 6.7865 15.8792 7.0875L23.2278 12.45C23.6389 12.75 23.8444 13.1 23.8444 13.5C23.8444 13.9 23.6389 14.25 23.2278 14.55L15.8792 19.9125C15.4681 20.2125 14.9802 20.3565 14.4156 20.3445C13.851 20.3325 13.3625 20.176 12.95 19.875C12.5732 19.575 12.3936 19.219 12.4114 18.807C12.4293 18.395 12.6259 18.051 13.0014 17.775L16.8042 15Z" fill="white"/>
</svg>
